<svg xmlns="http://www.w3.org/2000/svg" fill="none" viewBox="0 0 24 24">
  <path fill="currentColor"
    d="m12 3 .49-.87a1 1 0 0 0-.98 0L12 3Zm1.4.78-.5.88a1 1 0 0 0 .49.12v-1Zm1.6.02.86-.5a1 1 0 0 0-.85-.5l-.01 1Zm.82 1.38-.86.51a1 1 0 0 0 .35.35l.5-.86ZM17.2 6l1-.01a1 1 0 0 0-.5-.85l-.5.86Zm.02 1.6-1 .01a1 1 0 0 0 .12.48l.88-.49ZM18 9l.87.49a1 1 0 0 0 0-.98L18 9Zm-.78 1.4-.88-.5a1 1 0 0 0-.12.49h1ZM17.2 12l.5.86a1 1 0 0 0 .5-.85l-1-.01Zm-1.38.82-.51-.86a1 1 0 0 0-.35.35l.86.5ZM15 14.2l.01 1a1 1 0 0 0 .85-.5l-.86-.5Zm-1.6.02-.01-1a1 1 0 0 0-.48.12l.49.88ZM12 15l-.49.87a1 1 0 0 0 .98 0L12 15Zm-1.4-.78.5-.88a1 1 0 0 0-.49-.12v1ZM9 14.2l-.86.5c.18.3.5.5.85.5l.01-1Zm-.82-1.38.86-.51a1 1 0 0 0-.35-.35l-.5.86ZM6.8 12l-1 .01a1 1 0 0 0 .5.85l.5-.86Zm-.02-1.6 1-.01a1 1 0 0 0-.12-.48l-.88.49ZM6 9l-.87-.49a1 1 0 0 0 0 .98L6 9Zm.78-1.4.88.5a1 1 0 0 0 .12-.49h-1ZM6.8 6l-.5-.86a1 1 0 0 0-.5.85l1 .01Zm1.38-.82.51.86a1 1 0 0 0 .35-.35l-.86-.5ZM9 3.8l-.01-1a1 1 0 0 0-.85.5l.86.5Zm1.6-.02.01 1a1 1 0 0 0 .48-.12l-.49-.88ZM4 19l-.9-.45A1 1 0 0 0 4 20v-1Zm2.5 0 .8-.6a1 1 0 0 0-.8-.4v1ZM8 21l-.8.6a1 1 0 0 0 1.7-.15L8 21Zm12-2v1a1 1 0 0 0 .9-1.45L20 19Zm-2.5 0v-1a1 1 0 0 0-.8.4l.8.6ZM16 21l-.9.45a1 1 0 0 0 1.7.15L16 21Zm3.4-5.45a1 1 0 1 0-1.8.9l1.8-.9Zm-4 2a1 1 0 1 0-1.8.9l1.8-.9Zm-5 .9a1 1 0 1 0-1.8-.9l1.8.9Zm-4-2a1 1 0 0 0-1.8-.9l1.8.9Zm5.1-12.58 1.4.79.98-1.75-1.4-.78-.98 1.74Zm1.88.91 1.6.02.02-2-1.6-.02-.02 2Zm.75-.47.82 1.38 1.72-1.02-.82-1.38-1.72 1.02Zm1.17 1.73 1.38.82 1.02-1.72-1.38-.82-1.02 1.72Zm.89-.03.02 1.6 2-.02-.02-1.6-2 .02Zm.14 2.08.79 1.4 1.74-.98-.78-1.4-1.75.98Zm.79.42-.79 1.4 1.75.98.78-1.4-1.74-.98Zm-.91 1.88-.02 1.6 2 .02.02-1.6-2-.02Zm-1.26 1.92-.82 1.38 1.72 1.02.82-1.38-1.72-1.02Zm.03.89-1.6.02.02 2 1.6-.02-.02-2Zm-4.38.02L9 13.2l-.02 2 1.6.02.02-2Zm-.75.47-.82-1.38-1.72 1.02.82 1.38 1.72-1.02Zm-2.06-1.7-.02-1.6-2 .02.02 1.6 2-.02ZM7.66 9.9l-.79-1.4-1.74.98.78 1.4 1.75-.98Zm-.79-.42.79-1.4-1.75-.98-.78 1.4 1.74.98Zm.91-1.88L7.8 6l-2-.02-.02 1.6 2 .02Zm-.47-.75 1.38-.82-1.02-1.72-1.38.82 1.02 1.72Zm1.73-1.17.82-1.38-1.72-1-.82 1.38L9.04 5.7Zm-.03-.89 1.6-.02-.02-2-1.6.02.02 2Zm2.08-.14 1.4-.79-.98-1.74-1.4.78.98 1.75Zm5.6 6.48-1.38.82 1.02 1.72 1.38-.82-1.02-1.72Zm-8 .82-1.38-.82-1.02 1.72 1.38.82 1.02-1.72Zm4.22 1.38-1.4.79.98 1.74 1.4-.78-.98-1.75Zm-.42.79-1.4-.79-.98 1.75 1.4.78.98-1.74ZM4 20h2.5v-2H4v2Zm1.7-.4 1.5 2 1.6-1.2-1.5-2-1.6 1.2ZM20 18h-2.5v2H20v-2Zm-3.3.4-1.5 2 1.6 1.2 1.5-2-1.6-1.2Zm.9-1.95 1.5 3 1.8-.9-1.5-3-1.8.9Zm-4 2 1.5 3 1.8-.9-1.5-3-1.8.9Zm-5-.9-1.5 3 1.8.9 1.5-3-1.8-.9Zm-4-2-1.5 3 1.8.9 1.5-3-1.8-.9ZM13 9a1 1 0 0 1-1 1v2a3 3 0 0 0 3-3h-2Zm-1 1a1 1 0 0 1-1-1H9a3 3 0 0 0 3 3v-2Zm-1-1a1 1 0 0 1 1-1V6a3 3 0 0 0-3 3h2Zm1-1a1 1 0 0 1 1 1h2a3 3 0 0 0-3-3v2Z" />
</svg>