<svg xmlns="http://www.w3.org/2000/svg" width="107" height="37" fill="none">
  <path fill="#284AA5" d="M45.4 11.89c.66.09 1.15.3 1.45.66.3.35.45.87.45 1.55v1.43c0 .78-.4 1.4-1.2 1.82-.79.43-1.92.65-3.4.65-.76 0-1.5-.05-2.2-.15a9 9 0 0 1-1.8-.4V15.2a14.08 14.08 0 0 0 3.98.6 6 6 0 0 0 1.8-.17c.33-.12.49-.34.49-.66v-.25c0-.25-.08-.42-.24-.52-.15-.1-.47-.19-.94-.26l-3.35-.47a2.33 2.33 0 0 1-1.46-.69 2.25 2.25 0 0 1-.47-1.52V9.85c0-.78.39-1.39 1.16-1.8A7.15 7.15 0 0 1 43 7.42a16.64 16.64 0 0 1 4.01.51l-.5 2.14a13.67 13.67 0 0 0-3.49-.48c-.82 0-1.38.06-1.7.18-.31.12-.47.34-.47.65v.23c0 .25.07.42.21.51.14.1.43.18.87.25l3.46.48Zm7.76 5.97V7.56h7.95v2.2h-5.62v1.9h5.62v2.05h-5.62v1.95h5.62v2.2h-7.95Zm23.78-10.3-3.73 10.3h-3.25l-3.71-10.3h2.57l2.74 8.03h.2l2.76-8.03h2.42Zm5.38 10.3V7.56h3.15l3.93 6.98h.19V7.56h2.33v10.3h-3.14l-3.93-6.98h-.2v6.98h-2.33ZM43.65 27.6v-2.05h4.08v5.34a7.6 7.6 0 0 1-1.87.63c-.7.15-1.4.22-2.13.22-1.7 0-3-.3-3.87-.92a3.12 3.12 0 0 1-1.32-2.73V24.8c0-1.18.47-2.08 1.4-2.7.94-.63 2.27-.94 4-.94.7 0 1.37.04 2 .12.64.08 1.2.2 1.7.37l-.52 2.23a6.86 6.86 0 0 0-1.38-.33 10.5 10.5 0 0 0-1.66-.13 5.3 5.3 0 0 0-2.38.43c-.55.28-.83.7-.83 1.25v2.69c0 .58.27 1.01.79 1.3.52.3 1.3.44 2.35.44a5.8 5.8 0 0 0 1.38-.15V27.6h-1.74Zm12.05-4.03v2.75h2.69c.6 0 .99-.06 1.2-.18.2-.11.3-.31.3-.6v-1.2c0-.3-.1-.5-.3-.6-.21-.12-.6-.17-1.2-.17H55.7Zm-2.33 8.03V21.3h5.25c1.36 0 2.3.2 2.82.62.52.41.78 1.1.78 2.07v1.78c0 .7-.13 1.25-.4 1.65-.27.4-.7.68-1.28.83l1.76 3.35h-2.6l-1.64-3.15H55.7v3.15h-2.34Zm20.57-2.54c.44-.28.66-.7.66-1.26v-2.7c0-.54-.22-.96-.67-1.24a3.66 3.66 0 0 0-1.95-.43 3.6 3.6 0 0 0-1.96.43c-.44.28-.67.7-.67 1.25v2.69c0 .56.22.98.66 1.26.44.28 1.1.42 1.97.42a3.7 3.7 0 0 0 1.96-.42Zm3-.97c0 1.18-.43 2.08-1.29 2.71-.85.63-2.08.94-3.67.94-1.6 0-2.82-.31-3.68-.94a3.16 3.16 0 0 1-1.28-2.71V24.8c0-1.18.43-2.08 1.29-2.7.86-.63 2.08-.94 3.67-.94 1.58 0 2.8.31 3.66.94a3.1 3.1 0 0 1 1.3 2.7v3.28Zm9.76 1.37a2.65 2.65 0 0 1-1.45-.42c-.4-.3-.6-.72-.6-1.27V21.3h-2.33v6.77c0 1.19.4 2.1 1.21 2.72.76.6 1.84.9 3.2.94.01-.76-.03-1.51-.04-2.27Zm2.99-8.16v6.47c0 .55-.2.97-.6 1.27-.31.23-.76.37-1.32.41 0 .76.04 1.51.04 2.27a5.2 5.2 0 0 0 3-.93 3.23 3.23 0 0 0 1.21-2.72V21.3H89.7Zm10.01 2.27v3.14h2.73c.48 0 .85-.07 1.1-.23.27-.15.4-.38.4-.67v-1.33c0-.3-.13-.52-.38-.68a2.17 2.17 0 0 0-1.12-.23H99.7Zm-2.34 8.03V21.3h5.03c1.33 0 2.3.23 2.94.69.62.46.94 1.17.94 2.14v2.06c0 .94-.33 1.64-.97 2.1-.64.46-1.6.7-2.9.7h-2.7v2.61h-2.34Z"/>
  <path fill="#DADBD8" fill-rule="evenodd" d="m.25 12.75 2.93 1.72 6.04-.6-1.16-4.65c-2.34-2.02-3-4-2.35-5.92L.25 12.75Z" clip-rule="evenodd"/>
  <path fill="#BDBFBD" fill-rule="evenodd" d="m10.43 18.71-1.21-4.84-6.04.6 7.25 4.24Z" clip-rule="evenodd"/>
  <path fill="#B1B3B2" fill-rule="evenodd" d="m14.9 13.31-5.26-3.07a12 12 0 0 1-1.62-1.05l.04.03 1.16 4.64 5.69-.55Z" clip-rule="evenodd"/>
  <path fill="#27282A" fill-rule="evenodd" d="m28.95 34.11.12-.21 5.31-9.24-4.09-2.38-7.87-.35 1.42 4.63.75.44c2.8 1.27 5.54 4.15 4.35 7.11Z" clip-rule="evenodd"/>
  <path fill="#545859" fill-rule="evenodd" d="m22.42 21.93-7.02-.3 8.44 4.94-1.42-4.64Z" clip-rule="evenodd"/>
  <path fill="#424446" fill-rule="evenodd" d="m20.85 16.77 1.57 5.16 7.87.35-9.44-5.51Z" clip-rule="evenodd"/>
  <path fill="#7C7F80" fill-rule="evenodd" d="m20.84 16.77-5.94-3.46-5.68.56 1.21 4.84 4.97 2.91 7.02.31-1.57-5.16Z" clip-rule="evenodd"/>
  <path fill="#040606" fill-rule="evenodd" d="M25.87 36.46c1.07-.08 1.98-.53 3.07-2.35 1.2-2.96-1.56-5.83-4.35-7.1l.32.18-1.36 2.33c-.28.82-.59 1.59-.95 2.35a29.43 29.43 0 0 1 3.27 4.6Z" clip-rule="evenodd"/>
  <path fill="#181819" fill-rule="evenodd" d="M23.55 29.52h-3.28c.84.74 1.61 1.53 2.33 2.35.36-.76.67-1.53.95-2.35Z" clip-rule="evenodd"/>
  <path fill="#27282A" fill-rule="evenodd" d="M22.6 31.86a28.65 28.65 0 0 1-2.87 4.61h5.71l.43-.01c-.9-1.58-2-3.14-3.27-4.6Z" clip-rule="evenodd"/>
  <path fill="#424446" fill-rule="evenodd" d="M22.6 31.86c-.72-.82-1.5-1.6-2.33-2.35h-2.93c-.8 1.52-2.3 3.03-4.07 4.4 1.35.9 2.77 1.76 4.14 2.56h2.32a28.65 28.65 0 0 0 2.87-4.6Z" clip-rule="evenodd"/>
  <path fill="#545859" fill-rule="evenodd" d="m9.35 36.46.6.02h7.46a75.82 75.82 0 0 1-4.14-2.57c-1.21.93-2.57 1.8-3.92 2.55Z" clip-rule="evenodd"/>
  <path fill="#393A3C" fill-rule="evenodd" d="M8.06 29.5a26.28 26.28 0 0 0 5.2 4.4c1.79-1.36 3.28-2.87 4.08-4.38l-9.28-.01Z" clip-rule="evenodd"/>
  <path fill="#7C7F80" fill-rule="evenodd" d="M8.06 29.51H3.04l2.33 4.03c1.26 2.18 2 2.83 3.98 2.92 1.35-.75 2.7-1.62 3.92-2.55a26.28 26.28 0 0 1-5.21-4.4Z" clip-rule="evenodd"/>
  <path fill="#27282A" fill-rule="evenodd" d="m8.94 26.26 8.53.02-5.51-3.19-3.9 1.64.88 1.53Z" clip-rule="evenodd"/>
  <path fill="#545859" fill-rule="evenodd" d="M8.05 24.73 4.4 26.26h4.55l-.88-1.53Z" clip-rule="evenodd"/>
  <path fill="#424446" fill-rule="evenodd" d="m4.98 19.07-.1.1 3.18 5.56 3.9-1.64-6.98-4.02Z" clip-rule="evenodd"/>
  <path fill="#7C7F80" fill-rule="evenodd" d="M31.57 7.87 28.88 3.2c-.9-1.57-1.86-2.25-3.34-2.25h-.35a35.18 35.18 0 0 0-3.87 2.52 37.98 37.98 0 0 1 5.4 4.4h4.85Z" clip-rule="evenodd"/>
  <path fill="#545859" fill-rule="evenodd" d="M17.23.95c1.46.81 2.82 1.65 4.1 2.52 1.1-.84 2.38-1.67 3.86-2.52h-7.96Z" clip-rule="evenodd"/>
  <path fill="#393A3C" fill-rule="evenodd" d="m17.22 7.85 9.5.01a38.1 38.1 0 0 0-5.4-4.39 15.78 15.78 0 0 0-4.1 4.38Z" clip-rule="evenodd"/>
  <path fill="#424446" fill-rule="evenodd" d="M21.33 3.47a55.16 55.16 0 0 0-4.1-2.52h-2.28a18.1 18.1 0 0 0-2.97 4.5c.68.79 1.4 1.59 2.18 2.4h3.06a15.74 15.74 0 0 1 4.1-4.38Z" clip-rule="evenodd"/>
  <path fill="#181819" fill-rule="evenodd" d="M11.07 7.85h3.08c-.77-.81-1.5-1.6-2.17-2.4-.36.77-.66 1.57-.91 2.4Z" clip-rule="evenodd"/>
  <path fill="#27282A" fill-rule="evenodd" d="M14.95.95H8.81c.83 1.54 1.9 3.01 3.17 4.5a18.28 18.28 0 0 1 2.97-4.5Z" clip-rule="evenodd"/>
  <path fill="#040606" fill-rule="evenodd" d="M8.82.96c-1.5.04-2.2.86-3.12 2.38-.62 1.9.03 3.85 2.32 5.85.44.35.99.7 1.62 1.05l1.43-2.39c.25-.83.55-1.63.91-2.4A25.57 25.57 0 0 1 8.82.95Z" clip-rule="evenodd"/>
  <path fill="#27282A" fill-rule="evenodd" d="m26.57 12.67-.9-1.56-8.56-.01 5.54 3.2 3.92-1.63Z" clip-rule="evenodd"/>
  <path fill="#424446" fill-rule="evenodd" d="m22.65 14.3 6.89 3.97.15-.12-3.12-5.48-3.92 1.62Z" clip-rule="evenodd"/>
  <path fill="#545859" fill-rule="evenodd" d="m25.68 11.1.9 1.57 3.76-1.56h-4.66Z" clip-rule="evenodd"/>
  <path fill="#4E6EBE" d="M17.43 36.48H9.96h7.47Zm8.04 0h-8.04 8.01l.43-.02-.4.01Zm.43-.02c1.06-.08 1.95-.54 3.04-2.35 1.19-2.95-1.53-5.81-4.31-7.09 2.78 1.27 5.5 4.14 4.31 7.09l.13-.21 5.31-9.24-4.09-2.38-9.45-5.51-5.93-3.46h.02l5.93 3.46 9.45 5.5 4.1 2.4-5.32 9.23-.12.21.01-.04v.03l-.02.01a4.9 4.9 0 0 1-.24.52l-.04-.07c-.97 1.45-1.8 1.83-2.78 1.9Zm-16.53 0Zm13.23-4.6Zm0-.01Zm.95-2.33Zm-3.25 0h-.03.02Zm4.5-2.16-.17-.33.28.16-.1.17ZM9.23 13.87l5.69-.56-5.27-3.07 1.43-2.39h.02l-1.43 2.39 5.27 3.07-5.69.55v.01h-.02Zm-.77-3.1-.4-1.55-.01-.01.02.01.39 1.56ZM5.57 5.56Z"/>
  <path fill="#CFD9F1" d="M3.2 14.46.28 12.75l5.4-9.36a4.19 4.19 0 0 0-.11 2.16c.25 1.2 1.04 2.41 2.45 3.64a1.32 1.32 0 0 0 .04.03l.39 1.56.77 3.08v.01l-6.02.6Z"/>
  <path fill="#ABBEE6" d="M10.43 18.7 3.2 14.47l6.02-.6 1.2 4.83Z"/>
  <path fill="#9DB2E1" d="m9.22 13.86-.77-3.08-.4-1.56.04.02.38 1.53-.38-1.53c.42.34.95.67 1.55 1l5.27 3.07-5.7.55Z"/>
  <path fill="#2749A5" d="M28.95 34.11c1.18-2.95-1.54-5.82-4.33-7.1l-.76-.45-1.41-4.63 7.84.35 4.1 2.38-5.32 9.24-.12.21Zm.11-.26-.04.12.03-.08.01-.04.02-.07v.03l-.02.04Zm.08-.28-.03.1.02-.07v-.03l.03-.08-.01.05-.01.03Zm.07-.37v.06l-.02.06-.01.07.03-.19Zm.03-.28v.07l-.01.04v.08l.01-.2Zm0-.18v.09-.08l.01-.12v.11Zm0-.4v.2-.19Z"/>
  <path fill="#3858B0" d="m30.3 22.28-7.85-.35h-.03l-1.57-5.16 9.43 5.5h.01Z"/>
  <path fill="#617DC7" d="m22.42 21.93-7-.3-4.97-2.92-.02-.01-1.21-4.83h.02l5.67-.56 5.93 3.46 1.58 5.16Z"/>
  <path fill="#040606" d="M25.9 36.46h-.03a29.5 29.5 0 0 0-3.26-4.61c.36-.76.66-1.52.94-2.33h.02l1.25-2.14-.01-.02.1-.17-.28-.16c2.78 1.27 5.5 4.13 4.31 7.08-1.09 1.81-1.98 2.27-3.04 2.35Zm-2.33-6.93Z"/>
  <path fill="#223160" d="M22.6 31.86a26.68 26.68 0 0 0-2.33-2.34h3.28c-.28.81-.58 1.57-.94 2.33a26.93 26.93 0 0 0-.01.01Z"/>
  <path fill="#2749A5" d="M25.44 36.47h-5.71a28.65 28.65 0 0 0 2.88-4.59 29.5 29.5 0 0 1 3.26 4.58 5.3 5.3 0 0 1-.43.01Z"/>
  <path fill="#3858B0" d="M19.73 36.47h-2.32a77.7 77.7 0 0 1-4.14-2.56c1.78-1.37 3.27-2.88 4.07-4.4h2.92l.01.01a25.46 25.46 0 0 1 2.33 2.34 28.65 28.65 0 0 1-2.87 4.61Z"/>
  <path fill="#4161B6" d="M17.41 36.48H9.96c-.2 0-.4 0-.59-.02a32.07 32.07 0 0 0-.02 0h.02a33.95 33.95 0 0 0 3.9-2.55c1.35.91 2.77 1.76 4.14 2.57Z"/>
  <path fill="#3354AD" d="M13.27 33.9a26.28 26.28 0 0 1-5.21-4.39h9.28c-.8 1.52-2.3 3.03-4.07 4.4Z"/>
  <path fill="#4E6EBE" d="M31.59 7.87h-.02L28.88 3.2c-.9-1.57-1.86-2.25-3.34-2.25h.02c1.48 0 2.44.68 3.35 2.25l2.68 4.67Zm-14.37-.02Zm-3.06 0Zm7.17-4.38Zm2.92-1.97.94-.55h.03-.03l-.94.55Zm-9.46-.37.16-.18-.16.18Zm2.47-.18h-.02.02Z"/>
  <path fill="#617DC7" d="M9.35 36.46c-1.97-.1-2.7-.75-3.96-2.92l-2.33-4.03h5a26.28 26.28 0 0 0 5.2 4.4 32.12 32.12 0 0 1-3.9 2.55ZM31.57 7.87H26.7a38.1 38.1 0 0 0-5.37-4.39h.01-.02a29.13 29.13 0 0 1 2.92-1.98l.94-.55h.36c1.48 0 2.44.68 3.34 2.25l2.69 4.67Z"/>
  <path fill="#4161B6" d="M21.33 3.47a55.17 55.17 0 0 0-4.1-2.52h7.96a51.87 51.87 0 0 0-2.28 1.4c-.57.37-1.1.75-1.58 1.12Z"/>
  <path fill="#3354AD" d="M26.71 7.86h-9.47a15.77 15.77 0 0 1 4.1-4.38 38.1 38.1 0 0 1 5.37 4.38Zm-9.47 0h-.02a15.76 15.76 0 0 1 4.09-4.37l.02-.02v.01a15.73 15.73 0 0 0-4.09 4.37Z"/>
  <path fill="#3858B0" d="M17.22 7.85h-3.06c-.78-.81-1.5-1.61-2.18-2.4a17.3 17.3 0 0 1 2.97-4.5h.02l-.16.19.16-.19h2.26c1.46.81 2.82 1.65 4.1 2.52l-.02.02a15.7 15.7 0 0 0-4.1 4.36Z"/>
  <path fill="#223160" d="M11.1 7.85h-.03c.25-.83.55-1.63.9-2.4.68.8 1.41 1.59 2.19 2.4h-3.07Z"/>
  <path fill="#2749A5" d="M11.98 5.45A25.6 25.6 0 0 1 8.82.95h6.13l-.16.18a18.37 18.37 0 0 0-2.81 4.32Z"/>
  <path fill="#040606" d="M9.64 10.24c-.6-.33-1.13-.66-1.55-1l-.01-.02-.02-.01.02.01v.02l-.02-.02-.02-.01-.02-.02c-1.41-1.23-2.2-2.44-2.45-3.64a4.2 4.2 0 0 1 .12-2.16l.05-.1-.01.04c.9-1.5 1.6-2.32 3.09-2.37.82 1.53 1.9 3 3.16 4.49-.36.77-.66 1.57-.9 2.4l-1.44 2.39Z"/>
  <path fill="#4E6EBE" d="m23.84 26.55-1.42-4.62 1.42 4.62Zm-1.42-4.62-7-.3 7 .3Z"/>
  <path fill="#2749A5" d="m23.86 26.57-.02-.02-1.41-4.62h.02l1.41 4.64Z"/>
  <path fill="#4161B6" d="m23.83 26.55-8.4-4.93 6.99.31 1.41 4.62Z"/>
  <path fill="#3858B0" d="M22.45 21.93h-.02.01Z"/>
  <path fill="#617DC7" d="m22.42 21.93-7-.3 7 .3Z"/>
  <path fill="#4E6EBE" d="M17.5 26.28h-.03l-5.51-3.19L5 19.08v-.01l6.98 4.02 5.52 3.19Z"/>
  <path fill="#2749A5" d="m17.47 26.28-8.5-.02h-.03l-.88-1.53h.02v-.01l3.88-1.63 5.51 3.19Z"/>
  <path fill="#4161B6" d="M8.94 26.27H7l-2.6-.01 3.65-1.53.88 1.54Z"/>
  <path fill="#3858B0" d="m8.08 24.72-3.19-5.56.1-.08 6.97 4.01-3.88 1.63Z"/>
  <path fill="#4E6EBE" d="m26.57 12.68-.9-1.57-8.54-.01h8.55l.9 1.57h.01-.02Z"/>
  <path fill="#2749A5" d="m22.67 14.29-5.54-3.2 8.55.02.89 1.56-3.9 1.62Z"/>
  <path fill="#3858B0" d="m22.68 14.3-.01-.01 3.9-1.62-3.9 1.62Z"/>
  <path fill="#4161B6" d="m26.57 12.67-.89-1.56h.02l.89 1.56h-.02Z"/>
  <path fill="#4E6EBE" d="m29.56 18.27-.01-.01.14-.11-3.12-5.47h.02l3.13 5.47-.16.12Z"/>
  <path fill="#3858B0" d="m29.55 18.26-6.88-3.97 3.9-1.61 3.12 5.47-.14.11Z"/>
  <path fill="#4E6EBE" d="m26.6 12.67 3.74-1.56H25.7h4.66l-3.76 1.56Z"/>
  <path fill="#4161B6" d="m26.6 12.66-.9-1.55h4.64l-3.75 1.55Z"/>
  <path fill="#284AA5" d="M87.77 31.71H86.6v-2.25h1.16v2.25Z"/>
</svg>
