<svg xmlns="http://www.w3.org/2000/svg" width="107" height="37" fill="none">
  <path fill="#fff"
    d="M45.4 11.89c.66.09 1.15.3 1.45.66.3.35.45.87.45 1.55v1.43c0 .78-.4 1.4-1.2 1.82a7.3 7.3 0 0 1-3.4.65c-.76 0-1.5-.05-2.2-.15a9 9 0 0 1-1.8-.4V15.2a14.08 14.08 0 0 0 3.98.6 6 6 0 0 0 1.8-.17c.33-.12.49-.34.49-.66v-.25c0-.25-.08-.42-.24-.52-.15-.1-.47-.19-.94-.26l-3.35-.47a2.32 2.32 0 0 1-1.46-.69 2.25 2.25 0 0 1-.47-1.52V9.85c0-.78.39-1.39 1.16-1.8A7.15 7.15 0 0 1 43 7.42a16.64 16.64 0 0 1 4.01.51l-.5 2.14a13.67 13.67 0 0 0-3.49-.48c-.82 0-1.38.06-1.7.18-.31.12-.47.34-.47.65v.23c0 .25.07.42.21.51.14.1.43.18.87.25l3.46.48Zm7.76 5.97V7.56h7.95v2.2h-5.62v1.9h5.62v2.05h-5.62v1.95h5.62v2.2h-7.95Zm23.78-10.3-3.73 10.3h-3.25l-3.71-10.3h2.57l2.74 8.03h.2l2.76-8.03h2.42Zm5.38 10.3V7.56h3.15l3.93 6.98h.19V7.56h2.33v10.3h-3.14l-3.93-6.98h-.2v6.98h-2.33ZM43.65 27.6v-2.05h4.08v5.34a7.7 7.7 0 0 1-1.87.63c-.7.15-1.4.22-2.13.22-1.7 0-3-.3-3.87-.92a3.12 3.12 0 0 1-1.32-2.73V24.8c0-1.18.47-2.08 1.4-2.7.93-.63 2.27-.94 4-.94.7 0 1.37.04 2 .12.64.08 1.2.2 1.7.37l-.52 2.22a6.9 6.9 0 0 0-1.38-.32 11.4 11.4 0 0 0-1.66-.13 5.3 5.3 0 0 0-2.38.43c-.55.28-.83.7-.83 1.25v2.69c0 .58.27 1.01.79 1.3.52.3 1.3.44 2.35.44a5.8 5.8 0 0 0 1.38-.15V27.6h-1.74Zm12.05-4.03v2.75h2.69c.6 0 .99-.06 1.2-.18.2-.11.3-.31.3-.6v-1.2c0-.3-.1-.5-.3-.6-.21-.12-.6-.17-1.2-.17H55.7Zm-2.33 8.03V21.3h5.25c1.36 0 2.3.2 2.82.62.52.41.78 1.1.78 2.07v1.78c0 .7-.13 1.25-.4 1.65-.27.4-.7.68-1.28.83l1.76 3.35h-2.6l-1.64-3.15H55.7v3.15h-2.34Zm20.57-2.54c.44-.28.66-.7.66-1.26v-2.7c0-.54-.22-.96-.67-1.24a3.66 3.66 0 0 0-1.95-.43 3.6 3.6 0 0 0-1.96.43c-.44.28-.67.7-.67 1.25v2.69c0 .56.22.98.66 1.26.44.28 1.1.42 1.97.42a3.7 3.7 0 0 0 1.96-.42Zm3-.97c0 1.18-.43 2.08-1.29 2.71-.85.63-2.08.94-3.67.94-1.6 0-2.82-.31-3.68-.94a3.16 3.16 0 0 1-1.28-2.71V24.8c0-1.18.43-2.08 1.29-2.7.86-.63 2.08-.94 3.67-.94 1.58 0 2.8.31 3.66.94a3.1 3.1 0 0 1 1.3 2.7v3.28Zm9.76 1.37a2.65 2.65 0 0 1-1.45-.42c-.4-.3-.6-.72-.6-1.27V21.3h-2.33v6.77c0 1.19.4 2.1 1.21 2.72.76.6 1.84.9 3.2.94.01-.76-.03-1.51-.04-2.27Zm2.99-8.16v6.47c0 .55-.2.97-.6 1.27a2.6 2.6 0 0 1-1.32.42c0 .75.04 1.5.04 2.26a5.2 5.2 0 0 0 3-.93 3.23 3.23 0 0 0 1.21-2.72V21.3H89.7Zm10.01 2.27v3.14h2.73c.48 0 .85-.07 1.1-.23.27-.15.4-.38.4-.67v-1.33c0-.3-.13-.52-.38-.68a2.17 2.17 0 0 0-1.12-.23H99.7Zm-2.34 8.03V21.3h5.03c1.33 0 2.3.23 2.94.69.62.46.94 1.17.94 2.14v2.06c0 .94-.33 1.64-.97 2.1-.64.46-1.6.7-2.9.7h-2.7v2.61h-2.34Z" />
  <path fill="#fff" fill-rule="evenodd" d="m.25 12.75 2.93 1.72 6.04-.6-1.16-4.65c-2.34-2.02-3-4-2.35-5.92L.25 12.75Z"
    clip-rule="evenodd" />
  <path fill="#fff" fill-rule="evenodd"
    d="m10.43 18.71-1.21-4.84-6.04.6 7.25 4.24Zm4.47-5.4-5.26-3.07a12 12 0 0 1-1.62-1.05l.04.03 1.16 4.64 5.69-.55Z"
    clip-rule="evenodd" />
  <path fill="#fff" d="M28.7 34.63c1.75-3.14-1.15-6.29-4.1-7.63Z" />
  <path fill="#fff" fill-rule="evenodd"
    d="m28.95 34.11.12-.21 5.31-9.24-4.09-2.38-7.87-.35 1.42 4.63.75.44c2.8 1.27 5.54 4.15 4.35 7.11Zm-6.53-12.18-7.02-.3 8.44 4.94-1.42-4.64Z"
    clip-rule="evenodd" />
  <path fill="#fff" fill-rule="evenodd"
    d="m20.85 16.77 1.57 5.16 7.87.35-9.44-5.51Zm-.01 0-5.94-3.46-5.68.56 1.21 4.84 4.97 2.91 7.02.31-1.57-5.16Zm5.03 19.69c1.07-.08 1.98-.53 3.07-2.35 1.2-2.96-1.56-5.83-4.35-7.1l.32.18-1.36 2.33c-.28.82-.59 1.59-.95 2.35a29.44 29.44 0 0 1 3.27 4.6Z"
    clip-rule="evenodd" />
  <path fill="#fff" fill-rule="evenodd" d="M23.55 29.52h-3.28c.84.74 1.61 1.53 2.33 2.35.36-.76.67-1.53.95-2.35Z"
    clip-rule="evenodd" />
  <path fill="#fff" fill-rule="evenodd"
    d="M22.6 31.86a28.66 28.66 0 0 1-2.87 4.61h5.71l.43-.01c-.9-1.58-2-3.14-3.27-4.6Z" clip-rule="evenodd" />
  <path fill="#fff" fill-rule="evenodd"
    d="M22.6 31.86c-.72-.82-1.5-1.6-2.33-2.35h-2.93c-.8 1.52-2.3 3.03-4.07 4.4 1.35.9 2.77 1.76 4.14 2.56h2.32a28.66 28.66 0 0 0 2.87-4.6Z"
    clip-rule="evenodd" />
  <path fill="#fff" fill-rule="evenodd"
    d="m9.35 36.46.59.02h7.47a75.82 75.82 0 0 1-4.14-2.57c-1.21.93-2.57 1.8-3.92 2.55ZM8.06 29.5a26.27 26.27 0 0 0 5.2 4.4c1.79-1.36 3.28-2.87 4.08-4.38l-9.28-.01Z"
    clip-rule="evenodd" />
  <path fill="#fff" fill-rule="evenodd"
    d="M8.06 29.51H3.04l2.33 4.03c1.26 2.18 2 2.83 3.98 2.92 1.35-.75 2.7-1.62 3.92-2.55a26.27 26.27 0 0 1-5.21-4.4Zm.88-3.24h8.53l-5.51-3.18-3.9 1.64.88 1.54Z"
    clip-rule="evenodd" />
  <path fill="#fff" fill-rule="evenodd"
    d="M8.05 24.73 4.4 26.26h4.55l-.88-1.53Zm-3.07-5.66-.1.1 3.18 5.56 3.9-1.64-6.98-4.02Zm26.59-11.2L28.88 3.2c-.9-1.57-1.86-2.25-3.34-2.25h-.35a35.17 35.17 0 0 0-3.87 2.52 37.98 37.98 0 0 1 5.4 4.4h4.85Z"
    clip-rule="evenodd" />
  <path fill="#fff" fill-rule="evenodd"
    d="M17.23.95c1.46.81 2.82 1.65 4.1 2.52 1.1-.84 2.38-1.67 3.86-2.52h-7.96Zm-.01 6.9 9.5.01a38.1 38.1 0 0 0-5.4-4.39 15.77 15.77 0 0 0-4.1 4.38Z"
    clip-rule="evenodd" />
  <path fill="#fff" fill-rule="evenodd"
    d="M21.33 3.47a55.16 55.16 0 0 0-4.1-2.52h-2.28a18.1 18.1 0 0 0-2.97 4.5c.68.79 1.4 1.59 2.18 2.4h3.06a15.73 15.73 0 0 1 4.1-4.38Z"
    clip-rule="evenodd" />
  <path fill="#fff" fill-rule="evenodd" d="M11.07 7.85h3.08c-.77-.81-1.5-1.6-2.17-2.4-.36.77-.66 1.57-.91 2.4Z"
    clip-rule="evenodd" />
  <path fill="#fff" fill-rule="evenodd" d="M14.95.95H8.81c.83 1.54 1.9 3.01 3.17 4.5a18.28 18.28 0 0 1 2.97-4.5Z"
    clip-rule="evenodd" />
  <path fill="#fff" fill-rule="evenodd"
    d="M8.82.96c-1.5.04-2.2.86-3.12 2.38-.62 1.9.03 3.85 2.32 5.85.44.35.99.7 1.62 1.05l1.43-2.39c.25-.83.55-1.63.91-2.4A25.57 25.57 0 0 1 8.82.95Zm17.75 11.71-.9-1.56-8.56-.01 5.54 3.2 3.92-1.63Z"
    clip-rule="evenodd" />
  <path fill="#fff" fill-rule="evenodd"
    d="m22.65 14.3 6.89 3.97.15-.12-3.12-5.48-3.92 1.62Zm3.03-3.2.9 1.57 3.76-1.56h-4.66Z" clip-rule="evenodd" />
  <path fill="#fff" fill-rule="evenodd"
    d="M29.25 32.83v-.2.2Zm-.01.16v-.07l-.02.19.01-.08V33Zm-.04.27.01-.06-.03.2.01-.08.01-.06Zm-.05.28v-.05l-.04.19.02-.08.02-.06Zm-.1.35.02-.08.01-.03-.06.19.03-.08Zm.19-1.54v.2-.2Zm-6.62-.49ZM8.08 9.22l.39 1.55-.39-1.55-.02-.01.02.01Zm22.24 13.06h-.01l-9.44-5.51-5.94-3.46-5.69.56 5.69-.56-5.27-3.07 1.43-2.39h6.15l9.5.01 4.85.01-2.68-4.67C28 1.63 27.04.95 25.57.95H8.84c-1.5.05-2.2.87-3.11 2.38V3.3L.29 12.75l2.92 1.71 7.25 4.25 4.97 2.91 7.03.31 1.41 4.63.76.44v.01l.2.37-1.25 2.14h-6.21l-9.28-.01H3.06l2.33 4.03c1.26 2.18 2 2.83 3.98 2.92l.6.02h15.5l.43-.02c.97-.07 1.81-.45 2.78-1.9l.04.07c.1-.17.17-.34.24-.51l.01-.02.01-.03-.01.04.12-.21 5.32-9.24-4.1-2.38Z"
    clip-rule="evenodd" />
  <path fill="#fff" fill-rule="evenodd"
    d="m15.42 21.62 8.44 4.95-1.41-4.64-7.03-.3ZM4.41 26.26h4.55l8.54.02L5 19.07l-.1.1 3.18 5.56-3.67 1.53ZM25.7 11.1h-8.57l5.55 3.2 3.91-1.63-.89-1.56Z"
    clip-rule="evenodd" />
  <path fill="#fff" fill-rule="evenodd"
    d="m29.56 18.27.16-.12-3.13-5.48-3.91 1.62 6.88 3.98ZM25.7 11.1l.9 1.57 3.76-1.56H25.7Z" clip-rule="evenodd" />
  <path fill="#fff" d="M87.77 31.71H86.6v-2.25h1.16v2.25Z" />
</svg>